# xmcd
#
# Track frame offsets:
#   150
#   65038
#   128039
#
# Disc length: 2913 seconds
#
# Revision: 0
# Processed by: cddbd v1.4PL0 Copyright (c) Steve Scherf et al.
# Submitted via: uFREEDB 1.6.0
#
DISCID=260b5f03
DTITLE=Grateful Dead - Live In Atlanta
DYEAR=1900
DGENRE=Blues
TTITLE0=01 - ???
TTITLE1=02 - ???
TTITLE2=03 - ???
EXTD=
EXTT0=
EXTT1=
EXTT2=
PLAYORDER=
